<?xml version="1.0" encoding="UTF-8"?>
<!DOCTYPE svg PUBLIC "-//W3C//DTD SVG 1.1//EN" "http://www.w3.org/Graphics/SVG/1.1/DTD/svg11.dtd">
<svg xmlns="http://www.w3.org/2000/svg" version="1.1" width="512px" height="512px" style="shape-rendering:geometricPrecision; text-rendering:geometricPrecision; image-rendering:optimizeQuality; fill-rule:evenodd; clip-rule:evenodd" xmlns:xlink="http://www.w3.org/1999/xlink">
<g><path style="opacity:0.939" fill="#000000" d="M 511.5,234.5 C 511.5,238.5 511.5,242.5 511.5,246.5C 507.12,250.675 502.12,251.508 496.5,249C 483.217,236.056 471.05,222.223 460,207.5C 461.877,239.459 462.543,271.459 462,303.5C 461.417,332.831 454.417,360.497 441,386.5C 415.999,424.409 380.832,440.243 335.5,434C 323.175,432.004 311.675,427.837 301,421.5C 271.337,441.718 238.504,451.218 202.5,450C 168.557,448.341 144.724,432.174 131,401.5C 106.828,414.667 81.3276,418.5 54.5,413C 39.2336,407.285 27.4002,397.452 19,383.5C 9.02357,367.396 2.52357,350.063 -0.5,331.5C -0.5,321.833 -0.5,312.167 -0.5,302.5C 2.86979,277.593 14.2031,257.093 33.5,241C 38.0656,239.023 41.0656,240.523 42.5,245.5C 40.3181,250.193 37.1515,254.193 33,257.5C 12.9936,289.892 8.99364,324.225 21,360.5C 29.2914,381.891 44.7914,394.058 67.5,397C 88.8561,398.245 109.189,394.245 128.5,385C 125.33,353.504 128.83,322.671 139,292.5C 142.894,281.211 149.394,271.711 158.5,264C 172.739,256.915 186.739,257.582 200.5,266C 211.809,273.782 217.476,284.615 217.5,298.5C 214.722,329.084 201.389,353.917 177.5,373C 168.671,379.005 160.004,385.171 151.5,391.5C 159.544,411.706 174.21,424.206 195.5,429C 228.953,434.979 259.287,427.979 286.5,408C 271.3,390.081 264.3,369.247 265.5,345.5C 265.025,330.343 268.192,316.01 275,302.5C 288.287,281.334 305.121,277.834 325.5,292C 345.494,317.308 349.994,345.142 339,375.5C 333.248,387.836 325.415,398.669 315.5,408C 341.255,420.78 367.255,421.447 393.5,410C 411.756,397.719 423.922,380.885 430,359.5C 436.808,335.652 440.475,311.318 441,286.5C 441.794,262.483 441.46,238.483 440,214.5C 434.199,221.302 428.032,227.802 421.5,234C 416.182,237.695 411.349,237.195 407,232.5C 405.281,216.392 406.281,200.392 410,184.5C 412.987,170.538 416.987,156.871 422,143.5C 432.654,117.204 442.321,90.5377 451,63.5C 457.338,58.9674 462.672,59.9674 467,66.5C 487.706,121.091 502.54,177.091 511.5,234.5 Z M 425.5,203.5 C 426.907,190.203 429.741,177.203 434,164.5C 441.797,142.25 450.13,120.25 459,98.5C 472.445,134.95 482.112,172.284 488,210.5C 478.5,199 469,187.5 459.5,176C 454.116,173.579 449.283,174.412 445,178.5C 439.4,187.592 432.9,195.926 425.5,203.5 Z M 175.5,277.5 C 196.267,281.693 203.767,294.026 198,314.5C 187.864,340.474 170.697,360.474 146.5,374.5C 143.289,346.43 147.455,319.43 159,293.5C 162.438,285.893 167.938,280.56 175.5,277.5 Z M 298.5,302.5 C 310.794,302.408 318.294,308.408 321,320.5C 327.283,349.04 320.616,374.04 301,395.5C 285.769,376.037 280.436,354.037 285,329.5C 286.341,318.819 290.841,309.819 298.5,302.5 Z"/></g>
</svg>
